<svg class="loader-icon" version="1.1" id="Capa_1" xmlns="http://www.w3.org/2000/svg" xmlns:xlink="http://www.w3.org/1999/xlink" x="0px" y="0px"
			 viewBox="0 0 512 512" style="enable-background:new 0 0 512 512;" xml:space="preserve">
			<g fill="#fff">
				<g>
					<path d="M484.554,228.554h-18.241c-4.929-37.979-19.95-72.829-42.268-101.782l12.975-12.975c10.701-10.702,10.701-28.114,0-38.816
						c-10.702-10.699-28.114-10.701-38.816,0l-12.975,12.975c-28.952-22.317-63.802-37.338-101.781-42.267V27.446
						C283.446,12.313,271.133,0,256,0s-27.446,12.313-27.446,27.446v18.241c-37.979,4.929-72.829,19.95-101.782,42.268l-12.975-12.975
						c-10.702-10.701-28.114-10.699-38.816,0c-10.701,10.702-10.701,28.114,0,38.816l12.975,12.975
						c-22.317,28.952-37.338,63.802-42.267,101.781H27.446C12.313,228.554,0,240.867,0,256s12.313,27.446,27.446,27.446h18.241
						c4.929,37.979,19.95,72.829,42.268,101.782l-12.975,12.975c-10.701,10.702-10.701,28.114,0,38.816
						c5.351,5.35,12.379,8.025,19.408,8.025c7.028,0,14.057-2.676,19.407-8.025l12.975-12.975
						c28.953,22.317,63.803,37.339,101.782,42.268v18.24C228.554,499.687,240.867,512,256,512s27.446-12.313,27.446-27.446v-18.241
						c37.979-4.929,72.829-19.95,101.782-42.268l12.975,12.975c5.351,5.35,12.379,8.025,19.407,8.025
						c7.029,0,14.057-2.676,19.408-8.025c10.701-10.702,10.701-28.114,0-38.816l-12.975-12.975
						c22.317-28.953,37.339-63.803,42.268-101.782h18.241c15.133,0,27.446-12.313,27.446-27.446S499.687,228.554,484.554,228.554z
						 M44.292,268.476H27.446c-6.88,0-12.476-5.596-12.476-12.476s5.596-12.476,12.476-12.476h16.845
						c-0.242,4.13-0.377,8.287-0.377,12.476S44.05,264.346,44.292,268.476z M408.791,85.567c4.865-4.867,12.78-4.865,17.643,0
						c4.865,4.863,4.865,12.779,0,17.643l-11.983,11.983c-5.532-6.219-11.424-12.109-17.643-17.643L408.791,85.567z M243.524,27.446
						c0-6.88,5.596-12.476,12.476-12.476s12.476,5.596,12.476,12.476v16.845c-4.13-0.242-8.287-0.377-12.476-0.377
						s-8.346,0.136-12.476,0.377V27.446z M85.567,103.209c-4.865-4.863-4.865-12.779,0-17.643c4.862-4.866,12.778-4.867,17.643,0
						l11.983,11.983c-6.219,5.532-12.109,11.424-17.643,17.643L85.567,103.209z M103.209,426.433c-4.865,4.867-12.78,4.865-17.643,0
						c-4.865-4.863-4.865-12.779,0-17.643l11.983-11.983c5.532,6.219,11.424,12.109,17.643,17.643L103.209,426.433z M268.476,484.554
						c0,6.88-5.596,12.476-12.476,12.476s-12.476-5.596-12.476-12.476v-16.845c4.13,0.241,8.287,0.377,12.476,0.377
						s8.346-0.136,12.476-0.377V484.554z M426.433,408.791c4.865,4.863,4.865,12.779,0,17.643c-4.863,4.865-12.779,4.865-17.643,0
						l-11.983-11.983c6.219-5.532,12.109-11.424,17.643-17.643L426.433,408.791z M256,453.115C147.31,453.115,58.885,364.69,58.885,256
						S147.31,58.885,256,58.885S453.115,147.31,453.115,256S364.69,453.115,256,453.115z M484.554,268.476h-16.844
						c0.241-4.13,0.376-8.287,0.376-12.476s-0.136-8.346-0.376-12.476h16.844c6.88,0,12.476,5.596,12.476,12.476
						S491.433,268.476,484.554,268.476z"/>
				</g>
			</g>
			<g fill="#fff">
				<g>
					<path d="M256,108.788c-81.173,0-147.212,66.039-147.212,147.212S174.827,403.212,256,403.212S403.212,337.173,403.212,256
						S337.173,108.788,256,108.788z M366.847,183.969c8.731,13.389,15.103,28.447,18.522,44.585h-62.433
						c-0.066-0.16-0.124-0.324-0.191-0.483L366.847,183.969z M357.871,171.771l-42.683,42.683
						c-4.822-6.848-10.795-12.821-17.643-17.643l42.683-42.683C346.647,159.445,352.555,165.353,357.871,171.771z M313.388,256
						c0,31.644-25.744,57.388-57.388,57.388S198.612,287.644,198.612,256s25.744-57.388,57.388-57.388S313.388,224.356,313.388,256z
						 M283.93,189.254c-0.16-0.067-0.323-0.125-0.483-0.191v-62.433c16.137,3.42,31.195,9.791,44.585,18.522L283.93,189.254z
						 M243.524,124.351c4.108-0.386,8.268-0.593,12.476-0.593s8.368,0.207,12.476,0.593v60.389c-4.056-0.709-8.22-1.099-12.476-1.099
						s-8.42,0.39-12.476,1.099V124.351z M228.554,126.631v62.433c-0.16,0.066-0.324,0.124-0.483,0.191l-44.102-44.102
						C197.358,136.422,212.416,130.05,228.554,126.631z M171.771,154.129l42.683,42.683c-6.848,4.822-12.821,10.795-17.643,17.643
						l-42.683-42.683C159.445,165.353,165.353,159.445,171.771,154.129z M145.153,183.968l44.102,44.102
						c-0.067,0.16-0.125,0.323-0.191,0.483h-62.433C130.05,212.416,136.422,197.358,145.153,183.968z M123.758,256
						c0-4.208,0.207-8.368,0.593-12.476h60.389c-0.709,4.056-1.099,8.22-1.099,12.476s0.39,8.42,1.099,12.476h-60.389
						C123.965,264.368,123.758,260.208,123.758,256z M145.153,328.032c-8.731-13.389-15.102-28.447-18.522-44.586h62.433
						c0.066,0.16,0.124,0.324,0.191,0.483L145.153,328.032z M154.129,340.229l42.683-42.683c4.822,6.848,10.795,12.821,17.643,17.643
						l-42.683,42.683C165.353,352.555,159.445,346.647,154.129,340.229z M228.07,322.746c0.16,0.067,0.323,0.125,0.483,0.191v62.433
						c-16.137-3.42-31.195-9.791-44.585-18.522L228.07,322.746z M268.476,387.649c-4.108,0.386-8.268,0.593-12.476,0.593
						s-8.368-0.207-12.476-0.593V327.26c4.056,0.709,8.22,1.099,12.476,1.099s8.42-0.39,12.476-1.099V387.649z M283.446,385.369
						v-62.433c0.16-0.066,0.324-0.124,0.483-0.191l44.102,44.102C314.642,375.578,299.584,381.95,283.446,385.369z M340.229,357.871
						l-42.683-42.683c6.848-4.822,12.821-10.795,17.643-17.643l42.683,42.683C352.555,346.647,346.647,352.555,340.229,357.871z
						 M366.847,328.032l-44.102-44.102c0.067-0.16,0.125-0.323,0.191-0.483h62.433C381.95,299.584,375.578,314.642,366.847,328.032z
						 M327.26,268.476c0.709-4.056,1.099-8.22,1.099-12.476s-0.39-8.42-1.099-12.476h60.389c0.386,4.108,0.593,8.268,0.593,12.476
						s-0.207,8.368-0.593,12.476H327.26z"/>
				</g>
			</g>
			<g fill="#fff">
				<g>
					<g>
						<path d="M394.526,349.612l12.396,8.394c2.908-4.295,5.663-8.763,8.188-13.284l-13.068-7.302
							C399.723,341.568,397.195,345.671,394.526,349.612z"/>
						<path d="M408.483,324.631l13.647,6.152c6.28-13.928,10.777-28.625,13.366-43.682l-14.754-2.538
							C418.367,298.374,414.243,311.855,408.483,324.631z"/>
						<path d="M423.174,256.039c-0.001,4.772-0.206,9.589-0.607,14.319l14.916,1.268c0.438-5.15,0.661-10.394,0.662-15.586
							L423.174,256.039z"/>
					</g>
				</g>
			</g>
			<g fill="#fff">
				<g>
					<g>
						<path d="M301.858,416.807l4.097,14.4c11.995-3.414,23.68-8.094,34.732-13.908l-6.97-13.249
							C323.579,409.383,312.86,413.676,301.858,416.807z"/>
						<path d="M378.941,369.279c-3.225,3.498-6.639,6.901-10.151,10.112l10.105,11.046c3.823-3.497,7.541-7.202,11.053-11.01
							L378.941,369.279z"/>
						<path d="M346.096,396.844l8.08,12.602c4.361-2.797,8.657-5.817,12.765-8.975l-9.127-11.868
							C354.043,391.503,350.1,394.277,346.096,396.844z"/>
					</g>
				</g>
			</g>
			<g fill="#fff">
				<g>
					<path d="M194.863,411.644l-5.477,13.932c21.213,8.341,43.625,12.568,66.614,12.568v-14.971
						C234.893,423.173,214.323,419.294,194.863,411.644z"/>
				</g>
			</g>
			<g fill="#fff">
				<g>
					<g>
						<path d="M91.441,285.623l-14.737,2.634c3.059,17.116,8.56,33.679,16.352,49.229l13.384-6.706
							C99.294,316.516,94.248,301.322,91.441,285.623z"/>
						<path d="M130.402,366.331l-11.242,9.887c3.419,3.887,7.05,7.679,10.792,11.268l10.363-10.805
							C136.878,373.384,133.542,369.903,130.402,366.331z"/>
						<path d="M113.401,343.298l-12.76,7.829c2.708,4.414,5.643,8.769,8.724,12.942l12.042-8.894
							C118.58,351.346,115.887,347.351,113.401,343.298z"/>
					</g>
				</g>
			</g>
			<g fill="#fff">
				<g>
					<g>
						<path d="M73.856,255.828l14.971,0.012c0.004-4.768,0.212-9.584,0.618-14.317l-14.916-1.281
							C74.085,245.396,73.86,250.639,73.856,255.828z"/>
						<path d="M92.594,175.443c-2.296,4.649-4.416,9.453-6.303,14.282l13.944,5.448c1.731-4.429,3.676-8.837,5.782-13.1L92.594,175.443
							z"/>
						<path d="M76.525,224.764l14.752,2.552c0.812-4.694,1.836-9.402,3.045-13.993l-14.478-3.813
							C78.527,214.516,77.41,219.648,76.525,224.764z"/>
					</g>
				</g>
			</g>
			<g fill="#fff">
				<g>
					<g>
						<path d="M203.662,81.49l4.297,14.341c15.516-4.648,31.679-7.004,48.041-7.004V73.856
							C238.182,73.856,220.574,76.424,203.662,81.49z"/>
						<path d="M174.813,92.909l6.68,13.398c4.218-2.104,8.572-4.047,12.94-5.779l-5.516-13.918
							C184.155,88.497,179.41,90.616,174.813,92.909z"/>
					</g>
				</g>
			</g>
			<g fill="#fff">
				<g>
					<g>
						<path d="M400.67,145.319l-11.883,9.107c2.892,3.774,5.658,7.721,8.219,11.732l12.618-8.056
							C406.834,153.732,403.821,149.431,400.67,145.319z"/>
						<path d="M379.86,122.451l-10.183,10.975c3.433,3.186,6.772,6.553,9.92,10.007l11.064-10.083
							C387.234,129.587,383.599,125.921,379.86,122.451z"/>
						<path d="M417.452,171.605l-13.261,6.945c6.807,12.997,11.864,26.839,15.032,41.142l14.615-3.237
							C430.385,200.861,424.872,185.771,417.452,171.605z"/>
					</g>
				</g>
			</g>
			<g fill="#fff">
				<g>
					<path d="M283.446,256c0,15.133-12.313,27.446-27.446,27.446v14.971c23.389,0,42.417-19.028,42.417-42.417H283.446z"/>
				</g>
			</g>
			<g fill="#fff">
				<g>
					<path d="M213.583,256h14.971c0-15.133,12.313-27.446,27.446-27.446v-14.971C232.611,213.583,213.583,232.611,213.583,256z"/>
				</g>
			</g>
		</svg>