<?xml version="1.0" encoding="utf-8"?>
<!-- Generator: Adobe Illustrator 21.1.0, SVG Export Plug-In . SVG Version: 6.00 Build 0)  -->
<svg version="1.1" id="Слой_1" xmlns="http://www.w3.org/2000/svg" xmlns:xlink="http://www.w3.org/1999/xlink" x="0px" y="0px"
	 viewBox="0 0 214.9 109.1" style="enable-background:new 0 0 214.9 109.1;" xml:space="preserve">
<style type="text/css">
	.st0{clip-path:url(#SVGID_2_);fill:url(#SVGID_3_);}
	.st1{clip-path:url(#SVGID_5_);fill:url(#SVGID_6_);}
	.st2{fill-rule:evenodd;clip-rule:evenodd;fill:#FFFFFF;}
	.st3{fill:#FFFFFF;}
</style>
<g>
	<defs>
		<path id="SVGID_1_" d="M102.6,47.5c-6.5-11.2-6.8-23.1-1-35.6c-5.8,7-8.9,13.9-9.1,20.2c1.1-3.5,2-5.3,4.2-7.6
			C94.1,30.3,95.7,41.7,102.6,47.5 M109.3,10c-1.4-1.2-2.3-4.8-1.2-10c-2.6,5.1-6.5,12.1-7.8,19.7c1.4-2.9,2.9-4.7,5.9-7.2
			c-6.9,9.8-4.7,28,0.7,37.7l0.5,0.1c-0.6-0.3-1.1-1.6,1.2-2.7c1.7-0.8,4.4-1.3,8-1.3c4.1,0,6.9,0.6,9.2,1
			C116.1,36.4,107.5,25.3,109.3,10z M86.1,47.9c-0.1,1.4,3.3,1.7,4.5,4.7c7.6-0.2,14.6-0.5,23.2,1.2c-0.3-0.1,0.3-0.3,0-0.4
			C106.3,51,94.6,48.9,86.1,47.9z M92.8,23.2c-4.4,6.4-8.9,14.1-11.1,23.3c4.8-3.2,12.2-0.1,14.3,1.4c-0.4-0.6-0.9-1.4-1.4-2.2
			l-0.1-0.3l0,0C90.2,37.7,89.3,31.2,92.8,23.2z"/>
	</defs>
	<clipPath id="SVGID_2_">
		<use xlink:href="#SVGID_1_"  style="overflow:visible;"/>
	</clipPath>
	
		<linearGradient id="SVGID_3_" gradientUnits="userSpaceOnUse" x1="539.2277" y1="-7.0758" x2="540.2277" y2="-7.0758" gradientTransform="matrix(44.2312 0 0 53.8583 -23769.0195 408.0201)">
		<stop  offset="0" style="stop-color:#573824"/>
		<stop  offset="0.12" style="stop-color:#BA9836"/>
		<stop  offset="0.24" style="stop-color:#FFFFFF"/>
		<stop  offset="0.52" style="stop-color:#BC943F"/>
		<stop  offset="1" style="stop-color:#582E2C"/>
	</linearGradient>
	<rect x="81.7" class="st0" width="44.2" height="53.9"/>
</g>
<g>
	<defs>
		<path id="SVGID_4_" d="M209.6,79.3c0,0,0.1,0,0.1,0c0.5,0.2,0.9,0.6,1,1.2c0,0.2,0.1,0.4,0.1,0.7c0,0.5,0,1,0.1,1.5
			c0.1,0.7,0.2,1.3,0.3,1.9c0.6,3.5,1.9,7.1,3.4,10.3c0.1,0.3,0.3,0.6,0.3,0.9c0,0.7-0.5,1.3-1.2,1.3c-0.2,0-0.4-0.1-0.6-0.1
			c-0.3-0.1-0.5-0.3-0.7-0.5c-2.2-2.2-17.4-5.6-21.1-6.2c-0.6-0.1-1-0.6-1.1-1.2c3.7,0.6,18.8,4,21,6.2c0.2,0.2,0.5,0.4,0.7,0.5
			c0.2,0.1,0.4,0.1,0.6,0.1c0.7,0,1.2-0.6,1.2-1.3c0-0.3-0.1-0.6-0.3-0.9c-1.5-3.2-2.8-6.8-3.4-10.3c-0.1-0.6-0.2-1.3-0.3-1.9
			c-0.1-0.5-0.1-1-0.1-1.5C209.7,79.8,209.7,79.6,209.6,79.3L209.6,79.3z M203,62.4c-0.1,0.1-0.1,0.2-0.2,0.3
			c-0.2,0.4-0.3,0.8-0.4,1.2c-0.1,0.6-0.2,1.2-0.3,1.9c-0.1,0.9-0.1,1.8-0.1,2.7c0,3.6,0,7.2,0,10.8c0,2.8,0,5.7,0,8.5
			c-0.4,0-0.8,0-1.1,0c0-3.2,0-6.4,0-9.6c0-3.6,0-7.2,0-10.8c0-0.9,0-1.8,0.1-2.7c0-0.6,0.1-1.3,0.3-1.9c0.1-0.4,0.2-0.8,0.4-1.2
			c0-0.1,0.1-0.2,0.2-0.3c0.4,0.1,0.8,0.2,1.3,0.3c0.4,0.1,0.8,0,1.1-0.2c0.3-0.3,0.5-0.6,0.5-1.1c0-0.3,0-0.5,0-0.8
			c0-0.1,0-0.1,0-0.2l0.1,0c0.6,0.1,1,0.7,1,1.3c0,0.3,0,0.5,0,0.8c0,0.4-0.2,0.8-0.5,1.1c-0.3,0.3-0.7,0.3-1.1,0.2
			C203.8,62.6,203.4,62.5,203,62.4z M140.5,54.3c0.7,0.2,1.2,0.8,1.2,1.6c0,0.7-0.7,1.8-1.1,2.4c-0.8,1.2-1.3,2.9-1.7,4.3
			c-0.2,0.7-0.4,1.4-0.6,2.1c-0.2,0.6-0.3,1.3-0.3,1.9c0,0,0,0,0,0.1c-0.1,0.4-0.1,0.7-0.1,1.1c-0.1,0.9-0.6,1.6-1.5,1.7
			c-0.9,0.2-1.7-0.3-1.9-1.2c0.2,0.1,0.5,0.1,0.8,0c0.9-0.2,1.4-0.9,1.5-1.7c0-0.4,0.1-0.7,0.1-1.1c0,0,0,0,0-0.1
			c0.1-0.6,0.2-1.3,0.3-1.9c0.2-0.7,0.4-1.4,0.6-2.1c0.4-1.4,0.9-3.1,1.7-4.3c0.4-0.6,1.1-1.7,1.1-2.4
			C140.6,54.6,140.5,54.4,140.5,54.3z M134.9,82.7c-0.9-0.6-1.8-1.1-2.8-1.4c-1.6-0.5-3.2-0.9-4.9-1.2c-1.8-0.3-3.6-0.8-5.3-1.4
			c-1.7-0.6-3.1-1.5-4.4-2.8c-0.1-0.1-0.3-0.3-0.4-0.4c1.1,0.9,2.3,1.6,3.6,2.1c1.7,0.6,3.5,1.1,5.3,1.4c1.6,0.3,3.3,0.7,4.9,1.2
			c1.2,0.4,2.4,1,3.4,1.9C134.5,82.2,134.7,82.4,134.9,82.7z M120.9,80.7c0.7,0.2,1.2,0.8,1.2,1.6c0,0.3,0.1,0.7,0.1,1
			c0.2,1,0.5,1.9,0.7,2.9c0.3,1.2,0.9,2.3,1.5,3.3c0.1,0.2,0.2,0.4,0.4,0.5c-0.6-0.5-1.1-1-1.5-1.7c-0.6-1-1.2-2.1-1.5-3.3
			c-0.3-0.9-0.6-1.9-0.7-2.9c0-0.3-0.1-0.7-0.1-1C121,81,121,80.9,120.9,80.7z M140.6,74.6c0.4,0.4,0.8,0.8,1.2,1.3
			c1.4,1.7,1.9,3.9,1.9,6.1c0,1.8-0.3,3.5-1,5.1c-0.4,0.2-0.7,0.7-0.7,1.2l0,0.3c-0.6,1.1-1.3,2.1-2.1,3c-1.2,1.3-2.5,2.3-4,3.1
			c-6.1,3.2-12.6,0.5-12.2,0.5c0.9,0.1,1.8,0.2,2.6,0.2c2.8,0.1,6-0.6,8.5-1.9c1.5-0.8,2.9-1.8,4-3.1c1.2-1.3,2.1-2.7,2.7-4.3
			c0.7-1.7,1-3.4,1-5.3c0-2.2-0.5-4.4-1.9-6.1L140.6,74.6z M131.2,61.1c-0.3-0.2-0.6-0.4-0.9-0.5c-1-0.4-2-0.5-3-0.2
			c-1.4,0.4-2.7,1-3.7,2.1c-0.9,0.9-1.4,2-1.4,3.3c0,0.5,0.1,0.9,0.2,1.2c-0.1-0.1-0.2-0.1-0.3-0.2c-0.8-0.5-1-1.3-1-2.2
			c0-1.3,0.5-2.4,1.4-3.3c1-1.1,2.3-1.7,3.7-2.1c1-0.3,2.1-0.2,3,0.2C130,59.7,130.7,60.4,131.2,61.1z M48.4,93.7
			c0.6,0.1,1,0.5,1.1,1.1c0.1,0.2,0.1,0.4,0.1,0.6c0,0.5,0,1,0.1,1.5c0.1,0.6,0.2,1.2,0.3,1.8c0.1,0.6,0.2,1.2,0.4,1.7l0.1,0.2
			c-0.1,0.3-0.2,0.6-0.2,0.9c0.1,0.5,0.4,0.8,0.8,1l0,0.1c0.3,1.1,0.7,2,1.2,3c0.1,0.3,0.3,0.5,0.4,0.8c0.2,0.3,0.4,0.7,0.4,1.1
			c0,0.9-0.6,1.6-1.6,1.6l-0.1,0c-0.3,0-0.6,0-0.9-0.2c-0.1,0-0.2-0.1-0.2-0.1c-0.1,0-0.2,0-0.3,0c-0.2,0-0.5,0-0.7,0l-0.5,0
			c-0.6,0-1.1,0-1.7,0c-5.4,0-10.9-0.4-16.2-1.1c-0.6-0.1-1.1-0.6-1.1-1.2l0,0c5.4,0.8,10.8,1.1,16.2,1.1c0.6,0,1.1,0,1.7,0l0.5,0
			c0.2,0,0.5,0,0.7,0c0.1,0,0.2,0,0.3,0c0.1,0,0.2,0.1,0.2,0.1c0.3,0.1,0.6,0.2,0.9,0.2l0.1,0c0.9,0,1.6-0.7,1.6-1.6
			c0-0.4-0.2-0.7-0.4-1.1c-0.1-0.2-0.3-0.5-0.4-0.8c-0.2-0.5-0.5-1-0.7-1.5c-0.2-0.5-0.4-1-0.5-1.5c-0.1-0.3-0.2-0.6-0.3-0.9
			c-0.1-0.4-0.3-0.8-0.4-1.3c-0.2-0.6-0.3-1.1-0.4-1.7c-0.1-0.6-0.2-1.2-0.3-1.8c-0.1-0.5-0.1-1-0.1-1.5
			C48.4,94.1,48.4,93.9,48.4,93.7z M43.7,75.4c0.3,0,0.6,0.2,0.8,0.4c0.2,0.3,0.4,0.6,0.3,1l-0.1,0.6c-0.1,0.7-0.7,1.2-1.4,1.2
			c-0.4,0-0.9,0-1.3,0c-0.1,0.2-0.2,0.4-0.3,0.6c-0.2,0.4-0.3,0.9-0.4,1.4c-0.1,0.6-0.2,1.3-0.3,1.9c-0.1,0.9-0.1,1.8-0.1,2.7v18.6
			c-0.4,0.1-0.7,0.2-1.1,0.3V84.1c0-0.9,0-1.8,0.1-2.7c0-0.6,0.1-1.3,0.3-1.9c0.1-0.5,0.2-0.9,0.4-1.4c0.1-0.2,0.2-0.4,0.3-0.6
			c0.4,0,0.9,0,1.3,0c0.7,0,1.3-0.5,1.4-1.2l0.1-0.6C43.7,75.6,43.7,75.5,43.7,75.4z M15.1,72.8c0,0.2-0.1,0.3-0.1,0.5
			c-0.1,0.6-0.2,1.3-0.3,2c-0.1,0.7-0.1,1.5-0.1,2.2c0,1,0,1.9,0,2.9v0.1c-0.1,0-0.2,0.1-0.4,0.1c-0.3,0.2-0.6,0.5-0.8,0.8v-2.1
			c0-1,0-1.9,0-2.9c0-0.8,0-1.5,0.1-2.2c0.1-0.7,0.1-1.3,0.3-2c0-0.2,0.1-0.3,0.1-0.5C14.6,72.2,15,72.5,15.1,72.8z M10.9,70.2
			c-0.1-0.1-0.2-0.1-0.4-0.1c-1.1-0.4-2.4-0.8-3.6-0.8c-0.6,0-1.2,0.1-1.7,0.4c-0.6,0.3-1,0.8-1.2,1.4c-0.1,0.1-0.3,0.2-0.3,0.4
			c-0.2,0.4-0.3,0.9-0.1,1.3c0,0.4,0,0.7,0,1.1c0,1,0.1,2,0.5,2.9c0.3,0.8,0.6,1.6,1.1,2.3v0.4c-0.4-0.4-0.7-0.9-1-1.3
			c-0.5-0.8-0.9-1.6-1.2-2.5c-0.3-0.9-0.5-1.9-0.5-2.9c0-1.5,0.2-3.4,1.7-4.2c0.5-0.3,1.1-0.4,1.7-0.4c1.2,0,2.5,0.4,3.6,0.8
			c0.7,0.3,1.3,0.6,2,0.9C11.2,70,11.1,70.1,10.9,70.2L10.9,70.2z M16.9,85.5c-0.1,0.1-0.1,0.1-0.2,0.2c-0.3,0.4-0.8,0.7-1.2,0.9
			c-0.3,0.1-0.5,0.3-0.8,0.4l-0.1,12.5c-0.4-0.1-0.8-0.2-1.1-0.3l0.1-13.4c0.3-0.1,0.5-0.2,0.8-0.4c0.4-0.3,0.9-0.6,1.2-0.9
			c0.1-0.1,0.1-0.1,0.2-0.2C16.1,84.5,16.9,85.1,16.9,85.5z M23.7,70.7c0.3,0.3,0.5,0.5,0.8,0.8c1.1,1.2,2,2.6,2.7,4.1
			c0.6,1.5,1,3.1,1,4.7c0,1.1-0.1,2.2-0.5,3.2c-0.3,0.8-0.8,1.5-1.3,2.1c-0.4,0.4-0.9,0.8-1.4,1.1c-0.4-0.4-0.8-0.8-1.2-1.1
			c0.6-0.3,1.1-0.7,1.5-1.1c0.6-0.6,1-1.3,1.3-2.1c0.4-1,0.5-2.1,0.5-3.2c0-1.6-0.3-3.2-1-4.7C25.4,73,24.6,71.8,23.7,70.7z
			 M26.1,88c0.8,0.7,1.5,1.5,2,2.3c1.1,1.7,1.8,3.6,1.8,5.6c0,1.9-0.3,4-1.4,5.6c-0.9,1.3-2,2.3-3.5,3c-1.2,0.5-2.5,0.8-3.8,0.8
			c-0.2,0-0.4,0-0.6,0c-3.3-0.2-5-1.1-7.9-2.2c-1.1-0.5-2.1-1-0.3-0.6c0.9,0.3,1.9,0.6,2.8,0.9c1.4,0.4,2.9,0.7,4.3,0.8
			c0.2,0,0.4,0,0.6,0c1.3,0,2.6-0.2,3.8-0.8c1.4-0.6,2.6-1.7,3.5-3c1.1-1.6,1.4-3.7,1.4-5.6c0-2-0.8-3.9-1.8-5.6
			C26.8,88.7,26.5,88.3,26.1,88z M77.8,81.3c-0.3,0.7-0.4,1.5-0.4,2.3c0,0.9,0.1,1.9,0.4,2.7c0.1,0.4,0.3,0.8,0.5,1.1
			c-0.3-0.2-0.5-0.4-0.7-0.6c-0.4-0.5-0.7-1.1-1-1.7c-0.3-0.8-0.4-1.8-0.4-2.7c0-1.9,0.7-3.4,2.1-4.7c1.4-1.3,3.1-2.1,5-2.6
			c-0.4,0.4-0.8,0.8-1.2,1.2c-0.6,0.5-1.2,0.9-1.8,1.3c-0.4,0.2-0.8,0.4-1.2,0.6c-0.3,0.1-0.7,0.4-1,0.5c-0.4,0.1-0.7,0.4-0.9,0.8
			c-0.2,0.4-0.1,0.9,0.2,1.3c0.1,0.1,0.1,0.1,0.2,0.2C77.6,81.1,77.7,81.2,77.8,81.3z M93.5,89.3c-0.1-0.1-0.1-0.2-0.2-0.2
			c-0.7,0.8-1.5,1.5-2.3,2.1c-1,0.8-2.2,1.5-3.5,1.9l0,5.7c-0.4,0.2-0.7,0.3-1.1,0.4l0-7.3c1.3-0.4,2.4-1.1,3.5-1.9
			c0.8-0.6,1.6-1.3,2.3-2.1c0.1,0.1,0.3,0.3,0.4,0.5c0.2,0.3,0.6,0.5,1,0.5c0,0,0,0,0,0C93.6,88.9,93.6,89.1,93.5,89.3z M65.2,77
			c-0.2,0.4-0.7,0.8-1.2,0.8c-0.4,0-0.9,0-1.3,0.1c-0.1,0.2-0.2,0.5-0.4,0.8c-0.2,0.5-0.3,1-0.4,1.4c-0.1,0.7-0.2,1.3-0.3,2
			c-0.1,0.9-0.1,1.8-0.1,2.7l0,12.1c0,1.1,0,2.1,0.1,3.2c0,0.9,0.2,1.8,0.4,2.6c0.1,0.2,0.1,0.4,0.2,0.6c-0.1,0-0.3-0.1-0.4-0.2
			c-0.5-0.4-0.8-1-1-1.5c-0.3-0.8-0.4-1.7-0.4-2.6c0-1.1-0.1-2.1-0.1-3.2l0-12.1c0-0.9,0-1.8,0.1-2.7c0-0.7,0.1-1.3,0.3-2
			c0.1-0.5,0.2-1,0.4-1.4c0.1-0.3,0.2-0.5,0.4-0.8c0.4,0,0.8-0.1,1.3-0.1c0.5,0,1-0.3,1.2-0.8c0,0,0.1,0.1,0.1,0.1
			C64.6,76.1,65.2,77,65.2,77z M74.8,98.6c0.1,0,0.2,0.1,0.3,0.1c0.5,0.2,0.8,0.6,0.9,1.2c0,0.5-0.3,1-0.7,1.3
			c-0.1,0.1-0.2,0.1-0.3,0.2c-0.3,0.1-0.6,0.3-0.9,0.4c-0.2,0.1-0.5,0.3-0.7,0.4l-0.5,0.3c-0.2,0.1-0.5,0.5-0.6,0.7
			c-0.5,0.7-1.1,1.4-1.8,2c-0.8,0.8-1.7,1.4-2.6,2c-1.1,0.7-2.3,1.1-3.6,1.2c-0.6,0.1-1.2,0.1-1.8,0.1c-0.5,0-1,0-1.5-0.1
			c-0.8-0.1-1.7-0.4-2.4-0.8c-0.7-0.4-1.4-0.9-2.1-1.4l-0.6-0.5c-0.9-0.9,0.6,0.3,1.5,0.7c0.8,0.4,1.6,0.7,2.4,0.8
			c0.5,0.1,1,0.1,1.5,0.1c0.6,0,1.2,0,1.8-0.1c1.3-0.2,2.5-0.6,3.6-1.2c0.9-0.6,1.8-1.2,2.6-2c0.6-0.6,1.3-1.3,1.8-2
			c0.1-0.2,0.4-0.6,0.6-0.7l0.5-0.3c0.2-0.1,0.5-0.3,0.7-0.4c0.3-0.2,0.6-0.3,0.9-0.4c0.1-0.1,0.2-0.1,0.3-0.2
			c0.5-0.2,0.8-0.7,0.7-1.3C74.8,98.7,74.8,98.7,74.8,98.6z M73.1,81.4c0,0.2-0.1,0.4-0.1,0.6c-0.1,0.4-0.2,0.9-0.2,1.4V91
			c0,1.4,0,2.7,0.2,4.1c0.1,0.7,0.2,1.6,0.5,2.3l0,0.1c-0.2-0.1-0.4-0.2-0.5-0.2c-0.3-0.2-0.5-0.6-0.7-1c-0.3-0.7-0.4-1.5-0.5-2.3
			c-0.2-1.3-0.2-2.7-0.2-4.1v-7.6c0-0.5,0.1-1,0.2-1.4c0.1-0.7,0.3-1.4,0.5-2.1c0.3-0.8,0.6-1.5,0.9-2.3c0.3-0.6,0.6-1.1,1-1.6
			c0.5-0.1,1-0.2,1.5-0.2c0,0,0,0,0,0c-0.7,1-1.4,2.1-1.8,3.2C73.5,79,73.2,80.2,73.1,81.4z M96.7,87.8c0.2,0,0.5,0.2,0.6,0.3
			l0.1,0.1c0.2,0.2,0.3,0.4,0.4,0.7c0.1,0.2,0.1,0.4,0.1,0.6c0,0.4,0,0.8,0.1,1.2c0,0.5,0.1,0.9,0.2,1.4c0.1,0.4,0.2,0.9,0.3,1.3
			c0.1,0.3,0.2,0.7,0.3,1c0.2,0.7,0.5,1.4,0.8,2.1c0.2,0.5,0.4,0.9,0.7,1.3c0.1,0.2,0.3,0.5,0.4,0.7c0.2,0.3,0.4,0.7,0.4,1.1
			c0,0.8-0.5,1.5-1.3,1.6c-0.2,0.1-0.4,0.1-0.6,0.1c-0.1,0-0.2,0-0.3,0c-0.1,0-0.2,0-0.3-0.1c0,0,0,0,0,0c-0.1,0-0.2,0-0.3,0
			c-0.4,0.1-0.8,0.2-1.2,0.2c-6.3,1.5-12.6,2.8-18.9,4.1c-0.4,0.1-0.8,0-1.1-0.3c-0.3-0.2-0.4-0.5-0.5-0.9c0.2,0,0.3,0,0.5,0
			c6.3-1.3,12.6-2.6,18.9-4.1c0.4-0.1,0.8-0.2,1.2-0.2c0.1,0,0.2,0,0.3,0c0,0,0,0,0,0c0.1,0,0.2,0,0.3,0.1c0.1,0,0.2,0,0.3,0
			c0.2,0,0.4,0,0.6-0.1c0.8-0.2,1.3-0.8,1.3-1.6c0-0.4-0.2-0.8-0.4-1.1c-0.1-0.2-0.3-0.4-0.4-0.7c-0.2-0.4-0.5-0.9-0.7-1.3
			c-0.3-0.7-0.5-1.4-0.8-2.1c-0.1-0.3-0.2-0.7-0.3-1c-0.1-0.4-0.2-0.9-0.3-1.3c-0.1-0.5-0.1-0.9-0.2-1.4c0-0.4-0.1-0.8-0.1-1.2
			C96.7,88.2,96.7,88,96.7,87.8z M92.5,77.6c-0.1-0.1-0.3-0.2-0.4-0.3c-0.6-0.4-1.3-0.7-2-0.9c-0.7-0.2-1.3-0.4-2-0.4
			c-0.1,0.4-0.2,0.7-0.3,1.1c-0.1,0.6-0.2,1.3-0.2,1.9c0,0.4-0.1,0.9-0.1,1.3c-0.2,0.2-0.3,0.4-0.4,0.7c-0.2,0.8-0.5,1.6-0.8,2.4
			v-0.8c0-0.9,0-1.7,0-2.6c0-0.7,0-1.4,0.1-2.1c0.1-0.6,0.1-1.3,0.2-1.9c0.1-0.4,0.2-0.7,0.3-1.1c0.7,0.1,1.4,0.2,2,0.4
			c0.7,0.2,1.3,0.5,2,0.9c0.5,0.4,1,0.8,1.4,1.3C92.4,77.5,92.5,77.6,92.5,77.6z M98.1,67.9c0.4,0.1,0.8,0.4,1,0.8
			c0.2,0.5,0.2,1.1,0,1.6c-0.1,0.3-0.2,0.5-0.3,0.8c-0.2,0.4-0.3,0.8-0.4,1.3c-0.2,0.6-0.3,1.3-0.5,1.9c-0.2,1-0.3,2-0.4,3
			c-0.1,0.9-0.2,1.8-0.2,2.8c0,0.8-0.4,1.4-1.2,1.6c-0.1,0-0.2,0-0.3,0c-0.6,0-1.1-0.4-1.4-1c0,0,0,0,0,0l-0.1-0.2
			c0.1,0,0.2,0,0.3,0c0.1,0,0.2,0,0.3,0c0.8-0.2,1.2-0.9,1.2-1.6c0-0.9,0.1-1.8,0.2-2.8c0.1-1,0.2-2,0.4-3c0.1-0.6,0.3-1.3,0.5-1.9
			c0.1-0.4,0.3-0.8,0.4-1.3c0.1-0.3,0.2-0.5,0.3-0.8C98.1,68.7,98.2,68.3,98.1,67.9z M155.3,60.2c-0.2-0.1-0.4-0.2-0.7-0.3
			c-0.4-0.1-0.9-0.1-1.4,0c-0.7,0.1-1.2,0.4-1.8,0.8c-0.7,0.5-1.2,1.2-1.7,1.9c-0.5,0.8-0.9,1.8-1.2,2.7c-0.3,1.1-0.4,2.2-0.4,3.3
			c0,1,0.1,2.2,0.4,3.1c0.2,0.4,0.3,0.8,0.6,1.2c-0.2-0.1-0.4-0.3-0.6-0.5c-0.5-0.5-0.9-1.2-1.2-1.9c-0.4-1-0.4-2.1-0.4-3.1
			c0-1.1,0.1-2.2,0.4-3.3c0.3-1,0.7-1.9,1.2-2.7c0.5-0.7,1-1.4,1.7-1.9c0.5-0.4,1.1-0.7,1.8-0.8c0.4-0.1,0.9-0.1,1.4,0
			c0.3,0.1,0.6,0.2,0.9,0.4c0.2,0.2,0.4,0.4,0.6,0.6C155.1,59.9,155.2,60.1,155.3,60.2L155.3,60.2z M158,68.4l-0.2,0.7l-0.2,0.9
			c-0.2-0.1-0.3-0.1-0.5-0.1c-0.4,0-0.8,0.2-1,0.6c0,0,0,0,0,0.1c0.2-0.9,0.5-1.8,0.7-2.7c0.2-0.7,0.4-1.5,0.6-2.2
			C157.5,66.6,157.7,67.5,158,68.4z M175.5,62.8c-0.2-0.1-0.4-0.3-0.7-0.4c-0.4-0.2-0.9-0.2-1.4-0.2c-0.4,0-0.9,0.1-1.3,0.3
			c-0.5,0.2-1.2,0.1-1.6-0.3c-0.2-0.2-0.4-0.4-0.6-0.7c-0.1-0.1-0.1-0.1-0.2-0.2c0.4,0.2,0.8,0.2,1.2,0c0.4-0.2,0.8-0.3,1.3-0.3
			c0.5,0,1,0,1.4,0.2c0.3,0.1,0.6,0.3,0.9,0.5C175,62.1,175.3,62.5,175.5,62.8z M166.1,58.7c0.4,0.1,0.8,0.4,1,0.8
			c0.2,0.5,0.1,1.1-0.3,1.5c-0.2,0.2-0.7,0.7-0.7,1c-0.1,0.4-0.1,0.8-0.1,1.1c0,0.3,0.1,0.7,0.1,1.1c0.1,0.5,0.2,0.9,0.3,1.3
			c0,0,0,0,0,0c0.6,2.3,1.2,4.5,1.8,6.8c0.6,2.3,1.2,4.5,1.8,6.8c0,0,0,0,0,0c0.2,0.7,0.3,1.4,0.5,2c0.1,0.5,0.3,1.1,0.5,1.6
			c0.2,0.5,0.4,0.9,0.6,1.3l-0.5,0c-0.2-0.3-0.4-0.7-0.6-1.1c-0.2-0.5-0.4-0.9-0.6-1.4c-0.2-0.5-0.3-1.1-0.5-1.6
			c-0.2-0.7-0.4-1.4-0.5-2c0,0,0,0,0,0c-0.6-2.3-1.2-4.5-1.8-6.8c-0.6-2.3-1.2-4.5-1.8-6.8c0,0,0,0,0,0c-0.1-0.4-0.2-0.9-0.3-1.3
			c-0.1-0.3-0.1-0.7-0.1-1.1c0-0.4,0-0.8,0.1-1.1c0.1-0.3,0.5-0.8,0.7-1C166,59.5,166.2,59.1,166.1,58.7z M157.2,85.8
			c0.3,0,0.5,0.1,0.7,0.3c0.3,0.3,0.4,0.6,0.4,1c0,0.3,0,0.5,0,0.8c0,0.7-0.5,1.3-1.2,1.3c-3.9,0.4-8.1,1.3-11.9,2.2
			c0,0-0.1,0-0.1,0c-0.4,0-0.8-0.1-1.1-0.3c-0.2-0.2-0.4-0.5-0.4-0.8c0.1,0,0.2,0,0.4,0c0.1,0,0.1,0,0.1,0c3.8-1,8-1.9,11.9-2.2
			c0.7-0.1,1.2-0.6,1.2-1.3c0-0.3,0-0.5,0-0.8C157.2,85.9,157.2,85.9,157.2,85.8z M160.9,79.6l-0.2,0.1c-1.1,0.6-2.4,0.9-3.6,1
			c-0.6,0.1-1.2,0.1-1.8,0c-0.2,0-0.3,0-0.5,0c0,0.1,0,0.2-0.1,0.4c-0.1,0.4-0.1,0.9-0.1,1.3c0,0.5,0,1,0.1,1.5
			c0.1,0.3,0.1,0.6,0.2,1l-0.6,0.1c0-0.1-0.1-0.2-0.1-0.2c-0.2-0.3-0.3-0.5-0.4-0.8c-0.1-0.4-0.2-0.7-0.3-1.1
			c-0.1-0.5-0.1-1-0.1-1.5c0-0.4,0-0.9,0.1-1.3c0-0.1,0-0.2,0.1-0.4c0.2,0,0.3,0,0.5,0c0.6,0,1.2,0,1.8,0c1.2-0.1,2.5-0.4,3.6-1
			c0.3-0.2,0.7-0.4,1-0.5c0.1,0.3,0.1,0.5,0.2,0.8C160.7,79,160.8,79.3,160.9,79.6z M188.6,86.1c0.2,0,0.4,0.1,0.6,0.3
			c-0.1,0.2-0.2,0.5-0.2,0.7c0,0.3,0,0.5,0,0.8c0,0.4,0.2,0.8,0.6,1.1c-0.1,0.1-0.2,0.3-0.3,0.4c-0.3,0.2-0.6,0.4-1,0.3
			c-4.1-0.4-8.3-0.7-12.4-0.8c-0.5,0-0.9-0.3-1.1-0.7c-0.2,0.3-0.6,0.6-1.1,0.5c-4.1,0-8.2,0.1-12.3,0.3c-0.4,0-0.7-0.1-1-0.4
			c-0.2-0.2-0.4-0.5-0.4-0.8c0.1,0,0.2,0,0.3,0c4.1-0.2,8.2-0.3,12.3-0.3c0.4,0,0.8-0.2,1.1-0.5c0.2,0.4,0.6,0.7,1.1,0.7
			c4.2,0.2,8.3,0.4,12.4,0.8c0.4,0,0.7-0.1,1-0.3c0.3-0.2,0.4-0.6,0.5-1c0-0.3,0-0.6,0-1C188.6,86.2,188.6,86.1,188.6,86.1z
			 M186.5,62.8c0.5,0.1,0.9,0.4,1.1,0.9c0.2,0.5,0,1.1-0.4,1.4c-0.2,0.1-0.6,0.5-0.7,0.7c0,0,0,0.1,0,0.1c0,0.1,0,0.1,0,0.2
			c-0.1,1.6-0.2,3.2-0.2,4.8c0,2.7,0,5.3,0,8c0,1.5,0.1,3.1,0.4,4.6c0.1,0.3,0.1,0.7,0.2,1.1l-0.8-0.1c-0.3-0.7-0.5-1.6-0.6-2.2
			c-0.3-1.5-0.4-3.1-0.4-4.6c0-2.7,0-5.3,0-8c0-1.6,0.1-3.2,0.2-4.8c0-0.1,0-0.1,0-0.2c0,0,0-0.1,0-0.1c0.1-0.2,0.5-0.6,0.7-0.7
			C186.4,63.7,186.6,63.3,186.5,62.8z M185.6,50.9c0.3,0.2,0.6,0.5,0.8,0.8c0.9,1.1,1.2,2.3,1.2,3.7c0,4.1-3.6,5.7-7,3.6
			c0,0,0,0-0.1-0.1c1.6,0.4,3.4,0.1,4.7-1.1c0.9-1,1.3-2.3,1.3-3.6C186.5,53.1,186.3,51.9,185.6,50.9z"/>
	</defs>
	<clipPath id="SVGID_5_">
		<use xlink:href="#SVGID_4_"  style="overflow:visible;"/>
	</clipPath>
	
		<linearGradient id="SVGID_6_" gradientUnits="userSpaceOnUse" x1="580.3359" y1="-7.859" x2="581.3359" y2="-7.859" gradientTransform="matrix(212.4822 0 0 58.1834 -123308.6406 537.2932)">
		<stop  offset="0" style="stop-color:#573824"/>
		<stop  offset="0.12" style="stop-color:#BA9836"/>
		<stop  offset="0.24" style="stop-color:#FFFFFF"/>
		<stop  offset="0.52" style="stop-color:#BC943F"/>
		<stop  offset="1" style="stop-color:#582E2C"/>
	</linearGradient>
	<rect x="2.4" y="50.9" class="st1" width="212.5" height="58.2"/>
</g>
<path class="st2" d="M6.1,81.9v-5.1c0-0.9-0.2-1.8-0.5-2.6c-0.3-0.7-0.7-1.5-1.1-2.2c0-0.1,0-0.1,0-0.2c0-0.1,0.1-0.1,0.2-0.1
	c0.3,0,0.6,0.1,0.9,0.1c0.6,0.1,1.2,0.2,1.7,0.2c0.8,0,1.5-0.1,2.2-0.3c0.7-0.2,1.3-0.4,1.9-0.8c0.5-0.3,1-0.9,1.4-1.2
	c0.1-0.1,0.2-0.1,0.2,0c0.1,0,0.1,0.1,0.1,0.2c0,0,0,0.1,0,0.1c-0.2,0.6-0.4,1.2-0.5,1.8c-0.1,0.7-0.2,1.4-0.3,2.1
	c-0.1,0.8-0.1,1.5-0.1,2.3c0,1,0,2,0,2.9v4.5c0.5-0.1,1.1-0.4,1.5-0.8c0.2-0.2,0.3-0.5,0.5-0.7c0.1-0.1,0.3-0.5,0.4-0.6
	c0,0,0,0,0.1,0l0,0c0.2,0,0.7,0.3,1,0.4c0.1,0.1,0.3,0.1,0.4,0.2c0.4,0.2,0.8,0.4,1.3,0.6l1.4,0.7c0.2,0.1,0.4,0.2,0.6,0.4
	c0.2,0.1,0.8,0.5,1.1,0.6c0.1-0.2,0.2-1,0.2-1.1l0-0.1c0.1-0.4,0.1-0.9,0.1-1.4c0-1.5-0.4-3-1-4.3c-0.7-1.5-1.5-2.8-2.6-4.1
	c-1.1-1.3-2.3-2.4-3.6-3.4c-1.2-0.9-2.6-1.7-4-2.2c-1.3-0.5-2.7-0.9-4-0.9c-0.8,0-1.6,0.1-2.3,0.5c-1.9,1-2.2,3.2-2.2,5.1
	c0,1.1,0.2,2.2,0.5,3.3c0.3,1,0.8,1.9,1.4,2.8c0.5,0.8,1.1,1.5,1.7,2.1C5.1,81,5.6,81.5,6.1,81.9 M15.4,82.7L15.4,82.7
	c-0.1,0-0.2,0.1-0.3,0.2c-0.2,0.2-0.4,0.4-0.6,0.6c-0.3,0.3-0.6,0.5-0.9,0.7c-0.4,0.2-0.9,0.4-1.4,0.5l-0.1,15
	c1,0.4,2.1,0.7,3.2,0.8c0.2,0,0.4,0,0.6,0c0.8,0,1.5-0.2,2.1-0.5c0.9-0.5,1.5-1.4,1.9-2.3c0.6-1.3,0.7-3.1,0.7-4.6
	c0-1.4-0.1-2.8-0.5-4.1c-0.3-1.1-0.7-2.2-1.3-3.2c-0.5-0.8-1.1-1.5-1.7-2.1C16.7,83.4,16.1,82.9,15.4,82.7z M4.7,96.9
	c0.2-0.3,0.4-0.6,0.6-1c0.2-0.4,0.3-0.8,0.4-1.3C5.8,94,5.9,93.4,6,92.9c0.1-0.7,0.1-1.5,0.1-2.2v-7.5c-0.6-0.5-1.2-1-1.7-1.6
	c-0.8-0.7-1.4-1.6-2-2.4c-0.7-1-1.2-2.1-1.7-3.2C0.2,74.6,0,73.3,0,72c0-1.5,0.2-3,1-4.3c0.6-1.2,1.6-2,2.8-2.6
	c1.2-0.6,2.5-0.7,3.8-0.7c0.2,0,0.3,0,0.5,0c1.9,0.1,3.7,0.5,5.5,1.1c1.8,0.6,3.4,1.3,5,2.3c1.4,0.9,2.7,1.9,3.8,3.1
	c1,1.1,1.9,2.4,2.5,3.7c0.6,1.3,0.9,2.8,0.9,4.2c0,0.9-0.1,1.9-0.4,2.8c-0.3,0.6-0.6,1.3-1.1,1.8c-0.4,0.4-0.9,0.8-1.4,1
	c-0.4,0.2-0.9,0.4-1.3,0.5c0.2,0.2,1,1,1.1,1.1c1.1,1,2.7,2.4,3.4,3.6c0.9,1.5,1.6,3.2,1.6,5c0,1.6-0.2,3.5-1.2,4.9
	c-0.8,1.1-1.7,2-3,2.6c-1.1,0.5-2.2,0.7-3.4,0.7c-0.2,0-0.4,0-0.6,0c-1.4-0.1-2.7-0.3-4-0.7c-2.2-0.7-4.4-1.4-6.6-2.2
	c-2.2-0.9-4.4-1.8-6.6-2.9c-0.1,0-0.1-0.1-0.1-0.2l0-0.7c0-0.1,0-0.1,0.1-0.2c0.1,0,0.1,0,0.2,0C3.1,96.2,3.9,96.5,4.7,96.9z"/>
<path class="st2" d="M31.6,104.4c0.3-0.4,0.5-0.8,0.7-1.2c0.2-0.5,0.4-1,0.5-1.5c0.1-0.7,0.2-1.4,0.3-2.1c0.1-0.9,0.1-1.9,0.1-2.8
	V83.3c0-0.9,0-1.9-0.1-2.8c0-0.7-0.1-1.4-0.3-2.1c-0.1-0.6-0.3-1.1-0.5-1.7c-0.2-0.5-0.4-0.9-0.7-1.4c-0.7-0.1-1.4-0.2-2.1-0.3
	c-0.1,0-0.2-0.1-0.2-0.2l0.1-0.6c0-0.1,0-0.1,0.1-0.1c0,0,0.1,0,0.2,0c1.9,0.3,3.9,0.5,5.8,0.7c2.2,0.2,4.4,0.3,6.6,0.3
	c0.1,0,0.1,0,0.1,0.1c0,0,0.1,0.1,0,0.2l-0.1,0.6c0,0.1-0.1,0.2-0.2,0.2c-0.6,0-1.3,0-1.9-0.1c-0.3,0.4-0.5,0.8-0.7,1.3
	c-0.2,0.5-0.4,1-0.5,1.6c-0.1,0.7-0.2,1.4-0.3,2.1c-0.1,0.9-0.1,1.9-0.1,2.8V105c0.1,0,0.3,0,0.4,0c1.1,0,2.2-0.2,3.1-0.9
	c0.9-0.7,1.6-1.6,2.1-2.6c0.6-1.1,1-2.4,1.2-3.6c0.1-0.6,0.3-1.2,0.4-1.9c0.2-0.7,0.3-1.4,0.5-2.1c0-0.2,0.1-0.6,0.4-0.6
	c0.2,0,0.3,0.1,0.3,0.3c0,0.1,0,0.2,0,0.4c0,0.5,0,1.1,0.1,1.6c0.1,0.6,0.2,1.3,0.3,1.9c0.1,0.6,0.2,1.2,0.4,1.8
	c0.1,0.5,0.3,0.9,0.4,1.3c0.1,0.3,0.2,0.6,0.3,0.9c0.2,0.5,0.3,1.1,0.6,1.6c0.2,0.5,0.4,1.1,0.7,1.6c0.1,0.3,0.3,0.6,0.5,0.9
	c0.1,0.1,0.2,0.3,0.2,0.5c0,0.3-0.2,0.5-0.5,0.5l-0.1,0c-0.1,0-0.3,0-0.4-0.1c-0.1-0.1-0.2-0.1-0.3-0.1c-0.2-0.1-0.4-0.1-0.6-0.1
	c-0.3,0-0.5,0-0.8,0l-0.5,0c-0.6,0-1.1,0-1.7,0c-5.4,0-10.7-0.4-16.1-1.1c-0.1,0-0.2-0.1-0.2-0.2l0.1-0.6c0-0.1,0-0.1,0.1-0.1
	c0,0,0.1,0,0.2,0C30.4,104.2,31,104.3,31.6,104.4"/>
<path class="st2" d="M66.3,74.7l-1,0.1l-0.3,0c-0.1,0-0.1,0-0.2,0c0,0-0.1-0.1-0.1-0.1v-0.7c0-0.1,0.1-0.2,0.2-0.2
	c3.6-0.4,7-0.9,10.5-1.6c0.1,0,0.1,0,0.2,0s0.1,0.1,0.1,0.2v0.7c0,0.1-0.1,0.2-0.2,0.2c-0.7,0.1-1.3,0.2-2,0.3
	c-0.6,0.7-1,1.4-1.4,2.1c-0.4,0.8-0.7,1.6-1,2.4c-0.2,0.7-0.5,1.5-0.6,2.2c-0.1,0.5-0.2,1.1-0.2,1.6v7.6c0,1.4,0,2.8,0.2,4.2
	c0.1,0.9,0.3,1.8,0.6,2.6c0.2,0.5,0.5,1.1,1,1.4c0.3,0.2,0.9,0.5,1.2,0.6c0.1,0,0.1,0.1,0.1,0.2c0,0.1,0,0.2-0.1,0.2
	c-0.1,0-0.2,0.1-0.3,0.1c-0.3,0.2-0.7,0.3-1,0.5c-0.2,0.1-0.5,0.3-0.7,0.4l-0.5,0.3c-0.3,0.2-0.7,0.7-0.9,1
	c-0.5,0.7-1.1,1.3-1.7,1.8c-0.7,0.7-1.5,1.3-2.4,1.8c-0.9,0.6-2,0.9-3.1,1.1c-0.5,0.1-1.1,0.1-1.7,0.1c-0.4,0-0.9,0-1.3-0.1
	c-0.7-0.1-1.4-0.4-2.1-0.7c-0.7-0.4-1.3-0.8-1.9-1.3c-0.2-0.2-0.4-0.3-0.5-0.5c-0.5-0.5-1.1-1-1.7-1.4c-0.4-0.2-0.8-0.4-1.3-0.5
	c-0.4-0.1-0.8-0.2-1.2-0.3c-0.1,0-0.1-0.1-0.1-0.2c0-0.1,0-0.2,0.1-0.2c0,0,0,0,0,0c0.3-0.2,0.8-0.6,1.1-0.9
	c0.3-0.5,0.6-0.9,0.8-1.5c0.2-0.5,0.4-1,0.5-1.5c0.1-0.4,0.1-0.8,0.1-1.2V83.7c0-0.9,0-1.9-0.1-2.8c0-0.7-0.1-1.4-0.3-2.1
	c-0.1-0.5-0.3-1.1-0.5-1.6c-0.2-0.4-0.4-0.8-0.7-1.3c-0.7,0-1.3,0-2,0.1c-0.1,0-0.1,0-0.1-0.1c0,0-0.1-0.1-0.1-0.1v-0.7
	c0-0.1,0.1-0.2,0.2-0.2c4.3-0.1,8.2-0.4,12.4-0.9c0.1,0,0.1,0,0.2,0c0,0,0.1,0.1,0.1,0.1l0,0.7c0,0.1-0.1,0.2-0.2,0.2
	c-0.7,0-1.3,0.1-1.9,0.1l0,0c-0.3,0.5-0.5,0.9-0.7,1.4c-0.2,0.5-0.4,1.1-0.5,1.6c-0.1,0.7-0.2,1.4-0.3,2.1c-0.1,0.9-0.1,1.9-0.1,2.8
	l0,12.1c0,1.1,0,2.1,0.1,3.2c0,1,0.2,2,0.5,2.9c0.3,0.8,0.7,1.5,1.3,2.1c0.5,0.4,1.2,0.6,1.9,0.6c0.2,0,0.5,0,0.7,0
	c0.5-0.1,1.1-0.3,1.6-0.5c0.7-0.3,1.3-0.8,1.9-1.3c0.6-0.6,1.1-1.3,1.5-2c0.5-0.9,0.6-1.8,0.6-2.8V82c0-0.5-0.1-1.1-0.2-1.5
	c-0.1-0.7-0.3-1.4-0.6-2.1c-0.3-0.7-0.6-1.4-1-2.1C67.2,75.7,66.8,75.2,66.3,74.7"/>
<path class="st2" d="M85.1,86.4c0.8-0.7,1.6-1.6,2-2.6c0.4-1,0.8-2,1-3c0-0.1,0.1-0.1,0.1-0.1c0.1,0,0.1,0,0.2,0.1
	c1.9,1.9,3.8,3.8,5.6,5.7c0.1,0.1,0.1,0.2,0,0.3l-0.5,0.6c0,0-0.1,0.1-0.2,0.1c-0.1,0-0.1,0-0.1-0.1c-0.4-0.4-0.7-0.8-1.1-1.2
	l-0.2-0.2C91.1,87,90.1,88,89,88.8c-1.2,0.9-2.5,1.6-3.9,1.9l-0.1,9.6c1.2-0.3,2.5-0.7,3.6-1.3c1-0.6,1.9-1.4,2.7-2.3
	c0.8-1,1.4-2.3,1.9-3.5c0.6-1.6,1.1-3.3,1.5-5c0-0.2,0.1-0.6,0.4-0.7c0.1,0,0.1,0,0.2,0l0.1,0.1c0,0,0,0.1,0.1,0.1
	c0,0.1,0,0.2,0,0.4c0,0.4,0,0.9,0.1,1.3c0,0.5,0.1,1,0.2,1.5c0.1,0.5,0.2,0.9,0.3,1.4c0.1,0.4,0.2,0.7,0.3,1.1
	c0.2,0.8,0.5,1.5,0.8,2.3c0.2,0.5,0.4,1,0.7,1.4c0.1,0.3,0.3,0.5,0.5,0.8c0.1,0.1,0.2,0.3,0.2,0.4c0,0.3-0.1,0.5-0.4,0.5
	c-0.1,0-0.2,0.1-0.4,0.1c0,0,0,0,0,0c-0.1,0-0.2,0-0.4-0.1c-0.1,0-0.2,0-0.2,0c-0.1,0-0.3,0-0.4,0c-0.4,0.1-0.9,0.2-1.3,0.3
	c-6.3,1.5-12.6,2.8-18.9,4.1c-0.1,0-0.1,0-0.2,0c0,0-0.1-0.1-0.1-0.2v-0.7c0-0.1,0.1-0.2,0.2-0.2c0.7-0.1,1.4-0.2,2.1-0.3
	c0.2-0.4,0.4-0.8,0.5-1.3c0.2-0.5,0.3-0.9,0.4-1.4c0.1-0.5,0.2-1.1,0.2-1.7c0.1-0.7,0.1-1.4,0.1-2v-4.9c-0.6-0.1-1.1-0.3-1.7-0.5
	c-0.7-0.3-1.3-0.8-1.9-1.4c-0.7-0.7-1.1-1.6-1.5-2.5c-0.5-1.2-0.6-2.5-0.6-3.7c0-1.5,0.3-3,0.9-4.3c0.6-1.4,1.4-2.7,2.4-3.8
	c1-1.2,2.3-2.2,3.7-2.9c1.5-0.8,3.1-1.4,4.7-1.8c0.8-0.2,1.6-0.3,2.4-0.4c0.7,0,1.4-0.1,2.1-0.1c0.6,0,1.3,0,1.9-0.1
	c0.6,0,1.2-0.1,1.8-0.2c0.3-0.1,0.7-0.2,1-0.3c0.2-0.1,0.4-0.2,0.7-0.3l0.5-0.3c0.1-0.1,0.3-0.1,0.5-0.2c0.1,0,0.1,0,0.2,0
	c0.1,0,0.2,0,0.2,0.1c0.1,0.2,0.1,0.5,0,0.7c-0.1,0.3-0.2,0.5-0.3,0.8c-0.2,0.4-0.3,0.9-0.5,1.3c-0.2,0.7-0.4,1.3-0.5,2
	c-0.2,1-0.3,2-0.4,3.1c-0.1,0.9-0.2,1.9-0.2,2.9c0,0.2-0.1,0.5-0.3,0.5c0,0,0,0,0,0c-0.2,0-0.3-0.1-0.3-0.3
	c-0.1-0.2-0.1-0.4-0.2-0.6c-0.1-0.3-0.2-0.5-0.3-0.8c-0.1-0.3-0.3-0.6-0.5-0.9c-0.5-0.6-1.1-1.1-1.7-1.6c-0.7-0.4-1.4-0.8-2.2-1.1
	c-0.8-0.3-1.7-0.4-2.5-0.5c-0.2,0-0.5,0-0.7,0c-0.6,0-1.3,0.1-1.9,0.2c-2.5,0.5-4.9,1.4-6.7,3.2C75.8,78.2,75,80,75,82.2
	c0,1,0.1,2.1,0.5,3.1c0.3,0.7,0.6,1.5,1.2,2.1c0.4,0.5,0.9,0.9,1.5,1.1c0.4,0.2,0.9,0.3,1.3,0.3c0,0,0,0,0.1,0l0.1-5.5
	c0-0.7-0.1-1.4-0.5-2c-0.2-0.4-0.6-0.9-1-1.3c0,0-0.1-0.1-0.1-0.1c0-0.1,0-0.1,0-0.2c0-0.1,0.1-0.1,0.1-0.1c0.3-0.1,0.8-0.4,1.1-0.5
	c0.4-0.2,0.9-0.4,1.3-0.7c0.7-0.4,1.4-0.9,2-1.4c0.6-0.5,1.2-1.1,1.7-1.7c0.4-0.5,0.8-1.1,1.2-1.7c0.1-0.1,0.2-0.1,0.2-0.1
	c0.1,0,0.1,0.1,0.1,0.2c-0.1,0.5-0.3,1.1-0.4,1.6c-0.1,0.7-0.2,1.3-0.3,2c-0.1,0.7-0.1,1.4-0.1,2.2c0,0.9,0,1.8,0,2.6V86.4z"/>
<path class="st2" d="M156.4,59.7c-0.2-0.3-0.4-0.6-0.7-0.9c-0.2-0.3-0.5-0.6-0.9-0.8c-0.4-0.3-0.8-0.4-1.2-0.5
	c-0.6-0.1-1.2-0.1-1.8-0.1c-0.9,0.1-1.6,0.5-2.3,1c-0.8,0.6-1.4,1.4-1.9,2.2c-0.6,0.9-1,2-1.3,3c-0.3,1.2-0.5,2.4-0.5,3.6
	c0,1.2,0.1,2.4,0.5,3.6c0.3,0.8,0.8,1.6,1.4,2.3c0.5,0.5,1.2,0.9,1.9,1.2c0.7,0.2,1.5,0.3,2.2,0.2c0.1,0,0.2,0,0.3-0.1
	c0.1,0,0.2-0.1,0.3-0.1c0.7-2.4,1.3-4.8,2-7.2C155.1,64.5,155.7,62.1,156.4,59.7 M160.9,75.1c-0.6-2.2-1.2-4.4-1.8-6.6
	c-0.7-2.5-1.3-5-2-7.5c-0.6,2.1-1.1,4.2-1.7,6.3c-0.6,2.1-1.1,4.3-1.7,6.4c0.3-0.1,0.5-0.3,0.8-0.4c0.3-0.2,0.6-0.4,0.8-0.6
	c0.3-0.2,0.5-0.5,0.7-0.8c0.3-0.4,0.5-0.7,0.8-1.1c0-0.1,0.1-0.1,0.2-0.1c0.1,0,0.1,0,0.2,0.1C158.4,72.2,159.6,73.7,160.9,75.1z
	 M170.3,84.9c0.7,0,1.4,0,2.1,0c0.1,0,0.2,0.1,0.2,0.2c0,0.3,0,0.5,0,0.8c0,0.1-0.1,0.2-0.2,0.2c-4.1,0-8.3,0.1-12.4,0.3
	c-0.1,0-0.1,0-0.1-0.1c0,0-0.1-0.1-0.1-0.1c0-0.3,0-0.5,0-0.8c0-0.1,0.1-0.2,0.2-0.2c0.7,0,1.4-0.1,2.1-0.1c0.1-0.3,0.1-0.6,0.2-1
	c0.1-0.4,0.1-0.7,0.1-1.1c0-0.4,0-0.9-0.1-1.3c-0.1-0.6-0.1-1.1-0.2-1.7c-0.1-0.6-0.2-1.2-0.3-1.8c-0.1-0.6-0.3-1.1-0.4-1.7
	c-0.1-0.2-0.1-0.4-0.2-0.6c-0.7,0.5-1.5,0.9-2.2,1.3c-1,0.5-2.1,0.8-3.2,0.9c-0.5,0.1-1.1,0.1-1.6,0c-0.5,0-0.9-0.1-1.4-0.2
	c-0.1,0.5-0.2,0.9-0.3,1.4c-0.1,0.5-0.1,1-0.1,1.5c0,0.6,0,1.1,0.1,1.7c0.1,0.4,0.2,0.9,0.3,1.3c0.1,0.4,0.3,0.7,0.5,1
	c0.2,0.3,0.3,0.6,0.5,0.9c0.7-0.1,1.4-0.1,2.1-0.2c0.1,0,0.1,0,0.2,0c0,0,0.1,0.1,0.1,0.1c0,0.3,0,0.5,0,0.8c0,0.1-0.1,0.2-0.2,0.2
	c-3.7,0.4-8.8,1.4-12.1,2.3c-0.1,0-0.1,0-0.2,0c0,0-0.1-0.1-0.1-0.2c0-0.3,0-0.5,0-0.8c0-0.1,0.1-0.2,0.2-0.2
	c0.5-0.1,0.9-0.3,1.4-0.3c1.2-1.3,3.3-3.7,4.1-5.2c0.8-1.5,1.6-3,2.2-4.6c-0.7-0.3-1.4-0.6-2.1-1c-0.9-0.4-1.6-1.1-2.3-1.8
	c-0.8-0.9-1.4-1.9-1.8-3c-0.5-1.4-0.7-3.1-0.6-4.5c0-1.5,0.2-2.9,0.7-4.3c0.4-1.3,1.1-2.6,1.9-3.7c0.8-1.1,1.8-2,3-2.8
	c1.2-0.8,2.5-1.2,4-1.4c1-0.1,2.1-0.2,3.1,0.2c0.8,0.3,1.5,0.6,2.2,1c0.6,0.4,1.2,0.8,1.8,1.2c0.6,0.4,1.2,0.7,1.8,0.8
	c0.2,0,0.4,0.1,0.7,0.1c0.3,0,0.7,0,1,0c0.1,0,0.2,0,0.2,0.1c0,0.1,0,0.2,0,0.2c-0.4,0.4-0.9,0.9-1,1.4c-0.1,0.5-0.2,1-0.2,1.5
	c0,0.4,0.1,0.8,0.1,1.2c0.1,0.5,0.2,1,0.3,1.5c0.6,2.3,1.2,4.5,1.8,6.8c0.6,2.3,1.2,4.5,1.8,6.8c0.2,0.7,0.3,1.4,0.5,2.1
	c0.2,0.6,0.3,1.1,0.5,1.7c0.2,0.5,0.4,1,0.7,1.5C169.6,83.8,170,84.3,170.3,84.9z"/>
<path class="st2" d="M184.1,64.5c0,0.1,0,0.2,0,0.2c-0.1,1.6-0.2,3.3-0.2,4.9c0,2.7,0,5.3,0,8c0,1.6,0.1,3.2,0.4,4.8
	c0.2,1,0.5,2.2,1,3.1c0.6,0.1,1.3,0.1,1.9,0.2c0.1,0,0.2,0.1,0.2,0.2c0,0.3,0,0.6,0,0.9c0,0.1,0,0.1-0.1,0.1c0,0-0.1,0.1-0.2,0
	c-4.2-0.4-8.3-0.7-12.5-0.8c-0.1,0-0.2-0.1-0.2-0.2c0-0.3,0-0.6,0-0.9c0-0.1,0-0.1,0.1-0.1c0,0,0.1-0.1,0.1-0.1c0.6,0,1.3,0,1.9,0
	c0.5-0.8,0.8-2,1-2.9c0.3-1.6,0.4-3.2,0.4-4.8c0-2.7,0-5.3,0-8c0-1.5-0.1-3-0.3-4.5c-0.4-1.5-1.3-3.1-2.5-4.1
	c-0.4-0.3-0.8-0.6-1.2-0.7c-0.6-0.2-1.2-0.3-1.8-0.3c-0.6,0-1.2,0.1-1.7,0.4c-0.1,0-0.2,0-0.2,0c-0.2-0.2-0.4-0.4-0.6-0.7
	c0,0-0.1-0.1,0-0.2c0-0.1,0-0.1,0.1-0.1c0.3-0.2,0.6-0.4,0.9-0.5c1.2-0.6,2.6-0.8,4-0.8c1,0,2.2,0.1,3.1,0.6
	c0.8,0.4,1.5,0.8,2.1,1.4c0.6,0.5,1.2,1,1.8,1.5c0.5,0.5,1.2,0.8,1.9,1.1c0.2,0.1,0.4,0.1,0.7,0.2c0.3,0.1,0.7,0.1,1,0.2
	c0.1,0,0.1,0.1,0.2,0.1c0,0.1,0,0.2-0.1,0.2c-0.4,0.3-0.9,0.8-1,1.3C184.1,64.3,184.1,64.4,184.1,64.5"/>
<path class="st2" d="M192.3,86.9c0.2-0.4,0.5-0.7,0.7-1.1c0.2-0.5,0.4-1,0.5-1.5c0.1-0.7,0.2-1.3,0.3-2c0.1-0.9,0.1-1.9,0.1-2.8
	c0-2.2,0-4.5,0-6.7c0-2.2,0-4.5,0-6.7c0-0.9,0-1.9-0.1-2.8c0-0.7-0.1-1.4-0.3-2.2c-0.1-0.6-0.3-1.1-0.5-1.7c-0.2-0.5-0.4-1-0.7-1.4
	c-0.7-0.1-1.4-0.2-2.1-0.4c-0.1,0-0.2-0.1-0.2-0.2c0-0.3,0-0.5,0-0.8c0-0.1,0-0.1,0.1-0.2c0,0,0.1-0.1,0.2,0c4.4,0.8,8.7,1.7,13,2.7
	c0.1,0,0.1,0.1,0.1,0.2c0,0.3,0,0.5,0,0.8c0,0.1,0,0.1-0.1,0.2c0,0-0.1,0.1-0.2,0c-0.7-0.2-1.4-0.3-2.1-0.5
	c-0.2,0.3-0.5,0.7-0.7,1.1c-0.2,0.5-0.4,1-0.5,1.5c-0.1,0.7-0.2,1.4-0.3,2c-0.1,0.9-0.1,1.9-0.1,2.8c0,3.6,0,7.2,0,10.8
	c0,3.5,0,7.1,0,10.6c1.1,0.3,2.5,0.4,3.6-0.1c0.9-0.4,1.7-1.1,2.2-1.9c0.6-1,1-2.1,1.3-3.2c0.3-1.2,0.6-2.5,0.9-3.7
	c0.1-0.3,0.2-0.7,0.6-0.6c0.2,0.1,0.3,0.2,0.3,0.4c0,0.1,0.1,0.3,0.1,0.4c0,0.6,0,1.1,0.1,1.7c0.1,0.7,0.2,1.3,0.3,2
	c0.6,3.6,2,7.4,3.5,10.6c0.1,0.3,0.2,0.4,0.2,0.5c0,0.1,0,0.2-0.1,0.2c0,0-0.1,0-0.1,0c-0.2-0.1-0.3-0.2-0.4-0.2
	c-2.5-2.5-17.8-5.9-21.7-6.5c-0.1,0-0.2-0.1-0.2-0.2c0-0.3,0-0.5,0-0.8c0-0.1,0-0.1,0.1-0.1c0,0,0.1-0.1,0.2,0
	C190.9,86.7,191.6,86.8,192.3,86.9"/>
<path class="st2" d="M181.5,57.7c-1.1-0.1-2-0.4-2.7-1.3c-0.7-0.8-1-1.9-1-2.9c0-1,0.2-2.1,1-2.8c0.7-0.8,1.7-1,2.7-0.9
	c1.1,0.1,2,0.5,2.7,1.3c0.7,0.8,1,1.9,1,3c0,1-0.2,2-1,2.8C183.5,57.5,182.6,57.8,181.5,57.7"/>
<path class="st3" d="M114.3,96.1c-0.2,0-0.3,0-0.3-0.2c0-0.3,0.1-0.6,0.4-0.9c0.4-0.4,0.9-1.1,1.5-2.1c0.6-1,1.1-2.3,1.5-4
	c0.1-0.5,0.2-1,0.4-1.7c0.2-0.7,0.3-1.4,0.4-2.1c0.1-0.7,0.2-1.3,0.3-1.8c0.1-0.5,0.1-0.9,0.1-1c0.1-0.5,0.1-0.9,0.1-1.2
	c0-0.3,0.1-0.5,0.3-0.5c0.3-0.1,0.5,0.1,0.5,0.4c0,0.3,0.1,0.7,0.1,1.1c0.1,0.8,0.4,1.8,0.8,3c0.4,1.3,0.9,2.5,1.7,3.6
	c0.7,1.1,1.7,2.1,2.9,2.8c1.2,0.7,2.8,0.9,4.6,0.5c0.9-0.2,1.8-0.5,2.6-1c0.8-0.5,1.5-1.1,2.1-1.8c0.6-0.7,1-1.5,1.4-2.3
	c0.3-0.8,0.5-1.6,0.5-2.4c0-1.7-0.5-3-1.6-3.9c-1-0.9-2.3-1.5-3.9-2c-1.5-0.5-3.2-0.9-5-1.2c-1.8-0.3-3.5-0.8-5-1.4
	c-1.5-0.6-2.8-1.5-3.9-2.6c-1-1.1-1.6-2.8-1.6-4.9c0-1.6,0.3-3.1,0.9-4.5c0.6-1.3,1.4-2.5,2.4-3.5c1-1,2.1-1.9,3.3-2.5
	c1.2-0.6,2.4-1.1,3.7-1.3c1.1-0.2,2-0.3,2.8-0.3c0.8,0,1.6,0.1,2.3,0.1c0.7,0.1,1.4,0.1,2,0.2c0.6,0.1,1.2,0,1.8-0.1
	c0.7-0.1,1.3-0.3,1.8-0.5c0.5-0.2,0.9-0.4,1.2-0.6c0.3-0.2,0.6-0.3,0.8-0.5c0.2-0.1,0.3-0.2,0.4-0.2c0.2,0,0.2,0.1,0.2,0.3
	c0,0.2-0.3,0.8-0.9,1.7c-0.6,0.9-1.2,2.4-1.8,4.5c-0.2,0.7-0.4,1.4-0.5,2c-0.2,0.7-0.3,1.3-0.4,2c-0.1,0.5-0.1,0.9-0.1,1.2
	c0,0.3-0.1,0.5-0.4,0.5c-0.3,0.1-0.4-0.1-0.4-0.4c0-0.3,0-0.7-0.1-1.1c0-0.1-0.1-0.3-0.2-0.7c-0.1-0.3-0.2-0.6-0.3-1
	c-0.2-0.4-0.3-0.7-0.5-1.2c-0.2-0.4-0.4-0.8-0.6-1.2c-1-1.6-2.1-2.6-3.3-3.2c-1.2-0.6-2.5-0.7-3.9-0.4c-1.7,0.3-3.2,1.1-4.4,2.2
	c-1.2,1.1-1.8,2.5-1.8,4.1c0,1.5,0.5,2.6,1.6,3.3c1.1,0.8,2.4,1.4,4,1.9c1.6,0.5,3.4,0.9,5.2,1.3c1.9,0.4,3.6,0.9,5.2,1.6
	c1.6,0.7,2.9,1.6,4,2.8c1.1,1.2,1.6,2.9,1.6,5c0,1.6-0.3,3.2-0.9,4.6c-0.6,1.5-1.4,2.8-2.5,3.9c-1,1.1-2.3,2.1-3.7,2.9
	c-1.4,0.8-2.9,1.3-4.5,1.6c-1.2,0.2-2.3,0.3-3.3,0.3c-0.9,0-1.8-0.1-2.5-0.2c-0.8-0.1-1.5-0.1-2.3-0.2c-0.8-0.1-1.6,0-2.6,0.2
	c-0.7,0.1-1.3,0.3-1.8,0.6c-0.5,0.3-1,0.6-1.4,0.8c-0.4,0.3-0.7,0.6-1,0.8C114.6,96,114.4,96.1,114.3,96.1"/>
</svg>
